<svg width="31" height="35" viewBox="0 0 31 35" fill="none" xmlns="http://www.w3.org/2000/svg">
<path d="M2.37498 0H20.961L30.8124 9.81315V32.8125C30.8124 34.0211 29.8325 35 28.625 35H2.37498C1.16745 35 0.1875 34.0211 0.1875 32.8125V2.18748C0.1875 0.978928 1.16756 0 2.37498 0Z" fill="#E2574C"/>
<path d="M30.7809 9.8436H23.1564C21.9488 9.8436 20.9689 8.86365 20.9689 7.65612V0.0217285L30.7809 9.8436Z" fill="#B53629"/>
<path d="M22.6072 16.5846C22.9737 16.5846 23.1531 16.2652 23.1531 15.9557C23.1531 15.6352 22.966 15.3257 22.6072 15.3257H20.5204C20.1124 15.3257 19.8849 15.6636 19.8849 16.0366V21.1652C19.8849 21.6224 20.1452 21.8761 20.4974 21.8761C20.8474 21.8761 21.1088 21.6224 21.1088 21.1652V19.7576H22.371C22.7626 19.7576 22.9584 19.4371 22.9584 19.1188C22.9584 18.8072 22.7626 18.4975 22.371 18.4975H21.1088V16.5846H22.6072ZM15.5536 15.3257H14.0267C13.6122 15.3257 13.3179 15.6101 13.3179 16.0322V21.1696C13.3179 21.6935 13.7412 21.8576 14.0442 21.8576H15.6465C17.5431 21.8576 18.7954 20.6096 18.7954 18.6835C18.7944 16.647 17.6154 15.3257 15.5536 15.3257ZM15.627 20.5911H14.6961V16.5923H15.5351C16.805 16.5923 17.3572 17.4444 17.3572 18.6201C17.3572 19.7204 16.8147 20.5911 15.627 20.5911ZM10.0335 15.3257H8.52086C8.09319 15.3257 7.85474 15.6078 7.85474 16.0366V21.1652C7.85474 21.6224 8.12816 21.8761 8.49562 21.8761C8.86309 21.8761 9.13651 21.6224 9.13651 21.1652V19.6678H10.0848C11.2551 19.6678 12.2209 18.8387 12.2209 17.5055C12.221 16.2007 11.2891 15.3257 10.0335 15.3257ZM10.0084 18.4648H9.13662V16.5299H10.0084C10.5465 16.5299 10.8888 16.9499 10.8888 17.4979C10.8877 18.0448 10.5465 18.4648 10.0084 18.4648Z" fill="white"/>
</svg>
